<svg width="76" height="63" viewBox="0 0 76 63" fill="none" xmlns="http://www.w3.org/2000/svg">
<g clip-path="url(#clip0_90_310)">
<path d="M73.471 48.2358C70.402 43.2954 67.0058 41.7681 63.764 42.8343C59.4982 44.2368 46.4488 48.5915 40.4601 51.6757C45.6317 39.4991 38.096 29.2529 31.1343 23.0547C31.1343 23.0547 58.6035 25.7506 61.405 27.5459C63.4611 28.8631 66.0528 31.3489 67.2444 32.7856C70.1346 32.4262 73.6498 32.8153 74.6036 34.223C75.898 36.1334 77.4044 45.6906 73.4717 48.2358H73.471Z" fill="#4373D1"/>
<path d="M6.04767 0C4.20068 3.32333 5.79574 13.5005 14.0917 20.1212C19.1569 24.1632 29.7704 28.2543 33.3979 38.176C36.8245 47.5475 32.6532 56.98 8.66892 62.9681C17.4879 63.447 44.1533 58.7166 37.6578 37.487C36.3457 33.1984 30.7383 25.4774 21.3607 20.1204C15.7008 16.8877 7.26964 10.0606 6.04767 0Z" fill="#4373D1"/>
<path d="M2.41357 13.8027C2.38401 18.4135 2.41357 25.4804 13.0796 31.199C19.796 34.8 28.6615 39.6729 29.079 49.5233C30.7176 45.7204 32.0881 40.1815 24.8183 33.295C20.6271 29.3242 17.5486 28.235 13.9137 26.3781C10.397 24.582 4.55829 19.9408 2.41357 13.8027Z" fill="#4373D1"/>
<path d="M0 25.4805C3.84322 31.6787 8.73775 34.3731 12.2153 35.9301C17.6971 38.3855 26.576 44.0142 24.0434 52.2186C21.3623 45.2118 18.8888 43.7447 10.8743 40.4214C5.72715 38.2867 0 33.6544 0 25.4805Z" fill="#4373D1"/>
<path d="M3.2478 39.4941C5.42282 42.1886 8.28049 43.5867 11.2024 44.8838C13.4964 45.9017 20.826 48.4766 19.932 54.1061C17.1017 50.3031 14.063 49.1954 10.1895 48.2079C5.89343 47.112 3.2478 42.9682 3.2478 39.4949V39.4941Z" fill="#4373D1"/>
<path d="M5.94134 49.5156C7.45587 51.0191 8.90539 51.4988 10.5071 51.7809C12.9895 52.2182 15.4031 52.6674 16.744 55.4814C14.6288 54.4635 12.5284 54.5712 10.3682 54.3737C7.66199 54.1264 5.90144 51.2218 5.94134 49.5156Z" fill="#4373D1"/>
</g>
<defs>
<clipPath id="clip0_90_310">
<rect width="76" height="63" fill="white"/>
</clipPath>
</defs>
</svg>
